<?xml version="1.0" standalone="no"?>
<!DOCTYPE svg PUBLIC "-//W3C//DTD SVG 20010904//EN"
 "http://www.w3.org/TR/2001/REC-SVG-20010904/DTD/svg10.dtd">
<svg version="1.0" xmlns="http://www.w3.org/2000/svg"
 width="132.000000pt" height="131.000000pt" viewBox="0 0 132.000000 131.000000"
 preserveAspectRatio="xMidYMid meet">

<g transform="translate(0.000000,131.000000) scale(0.100000,-0.100000)"
fill="#000000" stroke="none">
<path d="M536 978 c-86 -141 -126 -216 -120 -224 5 -6 71 -67 147 -134 112
-100 135 -125 126 -137 -7 -8 -18 -13 -25 -11 -12 3 -203 178 -382 351 l-82
80 1 -34 c0 -19 15 -162 32 -319 l32 -285 95 -3 95 -2 -47 42 -48 43 -19 145
c-10 80 -17 147 -15 149 2 2 70 -59 151 -135 214 -201 183 -185 243 -128 42
39 55 46 68 37 28 -17 20 -31 -53 -88 l-70 -54 -25 23 c-14 12 -75 68 -136
124 -61 56 -114 102 -118 102 -4 0 -5 -18 -2 -40 3 -22 9 -58 12 -79 5 -34 16
-48 77 -98 40 -33 100 -83 134 -111 l62 -52 143 121 c79 67 144 122 145 123 1
1 -94 89 -212 195 -194 175 -214 195 -204 213 6 12 37 63 69 114 l57 94 73
-111 73 -110 -49 -50 -48 -49 31 -32 32 -31 75 68 c42 37 76 70 76 74 0 9
-254 430 -260 431 -3 0 -63 -95 -134 -212z"/>
<path d="M967 737 l-168 -150 37 -38 37 -38 26 20 c14 11 45 39 69 61 24 22
45 39 47 37 1 -2 -8 -69 -21 -149 l-25 -145 -42 -37 -42 -38 90 3 90 2 37 300
c21 165 37 305 35 311 -1 6 -78 -56 -170 -139z"/>
</g>
</svg>
